<?xml version="1.0" encoding="UTF-8"?>
<svg id="Layer_3" data-name="Layer 3" xmlns="http://www.w3.org/2000/svg" viewBox="0 0 96.81 24.95">
  <defs>
    <style>
      .cls-1 {
        fill: #cf0;
      }
    </style>
  </defs>
  <g id="Layer_1" data-name="Layer 1">
    <path id="Betnjet_Combination_mark__color_light_" data-name="Betnjet_Combination_mark_(color_light)" class="cls-1" d="M39.16,12.74c-.41-.23-.44-.85,0-1.06.75-.37,1.22-1.19,1.33-2.02.3-2.27-1.47-3.87-4.09-3.87h-5.57c-.43,0-.77.35-.77.77v11.83c0,.43.35.77.77.77h5.69c2.54,0,4.3-1.49,4.3-3.63,0-1.22-.61-2.22-1.65-2.79ZM32.33,7.83h4.16c1.03,0,1.76.71,1.76,1.7,0,1.07-.78,1.83-1.93,1.83h-3.99v-3.53ZM36.63,17.1h-4.3v-3.74h4.09c1.22,0,2.06.76,2.06,1.85s-.71,1.89-1.85,1.89ZM68.49,9.52v6.21c0,.27-.22.49-.49.49h-1.27c-.27,0-.49-.22-.49-.49v-6.1c0-1.13-.75-1.87-2.01-1.87-1.47,0-2.46,1.01-2.48,2.33v5.64c0,.27-.22.49-.49.49h-1.27c-.27,0-.49-.22-.49-.49V6.59c0-.27.22-.49.49-.49h.89c.25,0,.46.18.49.43l.14,1.06c.63-1.05,1.91-1.8,3.42-1.8,2.16,0,3.57,1.45,3.57,3.73ZM79.32,6.13c.07.07.11.17.11.27v10.14c0,1.2-.47,2.23-1.28,2.95s-1.95,1.14-3.31,1.14-2.56-.41-3.39-1.1-1.31-1.68-1.31-2.83v-1.42c0-.13.05-.25.14-.33.09-.08.2-.14.33-.14h1.33c.13,0,.25.05.33.14.09.08.14.2.14.33v1.4c0,.55.24,1.02.66,1.35s1.02.52,1.72.52,1.27-.21,1.68-.57.65-.87.65-1.47v-7.72l.36-.36.36-.36-.23-.23-.23-.23-.35.35-.35.35h-1.37c-.13,0-.25-.05-.33-.14-.08-.08-.14-.2-.14-.33v-1.44c0-.11.04-.2.11-.27.07-.07.17-.11.27-.11h3.82c.11,0,.2.04.27.11ZM70.15,7.84v-1.35c0-.26.21-.47.47-.47h1.35c.26,0,.47.21.47.47v1.35c0,.26-.21.47-.47.47h-1.35c-.26,0-.47-.21-.47-.47ZM94.19,8.4v4.5c0,.86.44,1.34,1.28,1.34h.78c.31,0,.55.26.55.56v.78c0,.31-.25.56-.56.56h-.93c-2.2,0-3.38-1.09-3.38-3.09V2.29c0-.26.21-.47.47-.47h1.32c.26,0,.47.21.47.47v3.35l-.67.67.47.47.75-.75h1.6c.26,0,.47.21.47.47v.97c0,.26-.21.47-.47.47h-1.68c-.26,0-.47.21-.47.47ZM57.8,6.49v.97c0,.26-.21.47-.47.47h-1.68c-.26,0-.47.21-.47.47v4.5c0,.86.44,1.34,1.28,1.34h.78c.31,0,.55.26.55.56v.78c0,.31-.25.56-.56.56h-.93c-2.2,0-3.38-1.09-3.38-3.09V2.29c0-.26.21-.47.47-.47h1.32c.26,0,.47.21.47.47v3.35l-.67.67.47.47.75-.75h1.6c.26,0,.47.21.47.47ZM85.63,5.72c-2.58,0-4.63,1.72-4.97,4.56-.46,3.82,2.43,6.76,6.21,6.07,1.61-.29,2.79-1.27,3.36-2.75.12-.31-.1-.65-.44-.65h-1.25c-.19,0-.35.12-.43.29-.4.83-1.22,1.3-2.27,1.3-1.56,0-2.61-1-2.91-2.52l-.79-.79.47-.47.66.66c.09.09.21.14.33.14h6.33c.3,0,.54-.24.54-.54-.06-3.28-1.97-5.29-4.83-5.29ZM87.5,9.96h-3.9c-.34,0-.57-.35-.44-.66.46-1.06,1.34-1.68,2.46-1.68s1.92.62,2.32,1.69c.12.31-.11.64-.44.64ZM46.74,5.72c-2.58,0-4.63,1.72-4.97,4.56-.46,3.82,2.43,6.76,6.21,6.07,1.61-.29,2.79-1.27,3.36-2.75.12-.31-.1-.65-.44-.65h-1.25c-.19,0-.35.12-.43.29-.4.83-1.22,1.3-2.27,1.3-1.56,0-2.61-1-2.91-2.52l-.79-.79.47-.47.66.66c.09.09.21.14.33.14h6.33c.3,0,.54-.24.54-.54-.06-3.28-1.97-5.29-4.83-5.29ZM48.62,9.96h-3.9c-.34,0-.57-.35-.44-.66.46-1.06,1.34-1.68,2.46-1.68s1.92.62,2.32,1.69c.12.31-.11.64-.44.64ZM21.44,10c1.37,1.37,1.37,3.58,0,4.95l-8.97,8.97c-1.37,1.37-3.58,1.37-4.95,0-.89-.89-.72-2.37.34-3.04l6.33-3.97c.46-.29.18-.99-.35-.88-2.72.56-7.1,1.46-10.83,2.22-.61.12-1.24-.06-1.67-.5-1.11-1.11-.42-3.01,1.15-3.15l16.01-1.39c.55-.04.55-.84,0-.9L1.11,10.3c-1.04-.12-1.48-1.39-.74-2.12.29-.29.69-.42,1.09-.35l11.92,2.04c.4.07.53-.51.14-.62l-8.16-2.39c-1.29-.38-1.7-1.99-.75-2.94l2.9-2.9c1.37-1.37,3.58-1.37,4.95,0l8.97,8.97Z"/>
  </g>
</svg>