<svg width="88" height="32" viewBox="0 0 88 32" fill="none" xmlns="http://www.w3.org/2000/svg"><g clip-path="url(#a)"><path d="m63.1 1.5-2.3 3.2L59.1 7l-1.9 2.4-.3 1.1-1 3.8v.1h-.1l-4.2.4h-.3v-.4l1.1-4 .1-.5.2-.5L52 7l-1.5-5v-.3h.3l4-.3h.3v.2l.3 1.4.6 2.2L58.2 2q0-.3.4-.5l.5-.1L63 1h.5l-.3.4Z" fill="#f9f8f9" stroke="#2c2c2c"/><path d="m50.7 2-.6 3-2.4 9.8v.1h-.2l-3.1.3h-.2V15l-1.9-3.7-.7-1.5-.5.2-.3.1-3.3.5h-.3v-.3l2-7.9v-.1h.2l3.4-.2h.2v.1l2.4 5.1.3-1.2-.2-.1h-.2v-.3l.9-3.6V2h.2l4-.2h.4V2Z" fill="#f9f8f9" stroke="#2c2c2c"/><path d="m38.7 2.6-.6 2-1.6 6v.2h-.1l-3 .6-1.3.4h-.4l.1-.3L34 2.8v-.2h.2l4.2-.3h.4l-.1.3Z" fill="#f9f8f9" stroke="#2c2c2c"/><path d="M30.4 2.8q2.8 1 2.6 4a6.4 6.4 0 0 1-5.6 5.5l-2.5.3L24 16v.2h-.2l-2.2.1-2 .2h-.4l.1-.3 1-3.7L21.5 8v-.2h.2l3.3-.5h.1l.6-.3-4 .3h-.4V7l.7-2.3.3-1.4V3h.2l5.7-.4 2.2.1Zm-2.2 3.7h-1.9v.1l-.1.6-.5 1.7 1.4-.2c.8-.2 1.5-1 1.3-1.9q0 0-.2-.3Z" fill="#f9f8f9" stroke="#2c2c2c"/><path d="M14.6 3.4q2-.5 4.1 0c1 .2 2.1 1 2.4 2v2h-.2l-4 .4h-.2V7q-1.2-.6-2 .5v.1l.2.2 2.3.7q1.3.3 2.2 1t1 2.2c0 2.8-2.6 4.9-5.3 5.3q-1.5.3-3 .2-1.6-.1-2.7-1.1-1.3-1.4-.9-3.2v-.1h.2l4.1-.5h.3v1q.8.3 1.6.1.5 0 .7-.3t.3-.4l-.1-.1-.2-.2-1.7-.5q-1.6-.2-2.7-1.2A3 3 0 0 1 10 8q.3-2 1.5-3.1a6 6 0 0 1 3-1.5Z" fill="#f9f8f9" stroke="#2c2c2c"/><path d="m41.6 10.7-1 4.5-.1.2h-.2l-4 .3h-.4v-.3l1-4 .1-.1h.2l3-.6 1.1-.3.4-.1z" fill="#f9f8f9" stroke="#2c2c2c" stroke-width="0.6"/><path d="m36.3 11.7-1 3.8v.2H35L31 16h-.4l.1-.3.9-3.3v-.1h.2l2.4-.5 1.8-.4h.4v.3Z" fill="#f9f8f9" stroke="#2c2c2c"/><path d="M12.4 13.8 5.9 13l6.9-.5z" fill="#f9f8f9"/><path d="m14.8 7.8-3.4-.5 3.6-.5z" fill="#2c2c2c"/><path d="m33.8 29.8 3.9-.3.3-1.3.4-1.8.5-1.6 2.8-.3-1.2 4.8 2.1-.1 1.7-.1.2-1 1-4 1.8-7.7-3.8.3-.3 1-.2 1-.6 2.5-1.9.3-4.7.6-.3 1.1-.3 1-.2 1-.2 1.1-.6 2.4z" fill="#b4fe2f"/><path d="m39.7 21 1-4.2-3.8.3-1 4.2 3.3-.4z" fill="#b4fe2f"/><path d="M30.4 29.8a5 5 0 0 0 4-4.4q0-.8-.4-1.5-1-1.2-2.5-1.5l-2-.7q-.4-.1-.3-.7c0-.7 1.6-1 2.2-.6q.2.4 0 .9L34 21l1.2-.2v-1c-.1-1.2-1.2-2-2.3-2.4a8 8 0 0 0-3.9 0q-2.6.8-3.6 3.4-.7 2 1 3.4.8.6 1.9.9l1.6.5q.3.1.5.5c.2 1-2.3 1.4-2.8.7v-.7l-3.7.2q-.4 1.1.2 2.2 1 1.5 3 1.6 1.6.2 3.3-.3" fill="#b4fe2f"/><path d="M13 28.3q.5 1.8 2.3 2.3a8 8 0 0 0 4.9-.6 6 6 0 0 0 3.3-4.2l1-4 1-4.2-4 .4-.2 1.3-1 3.6v1l-.7 2.2c-.3 1-1.6 1.6-2.5 1-.5-.3-.3-1.2-.1-1.7l-.9.1-3 .5q-.5 1-.2 2.3" fill="#b4fe2f"/><path d="M13.3 25q2-.5 4-.7l.3-1.4 1.3-4.8-2.8.2H15l-.2 1-.5 2.2z" fill="#b4fe2f"/><path d="m.7 31.6 4-.4.8-3q0-.5.3-.7h.6l.7 1.7.5 1.3q.1.4.4.6l2.5-.2 1.5-.1-.6-1-1.4-3.2q1-.6 2-1.4 1.4-1.6 1.4-3.8-.1-1.3-1.1-2.1-1.4-.9-2.9-.8H8.1L4 19l-1.2 3.6 4-.5 1.6-.2.7.1q.3.2.3.6c0 1.7-1.5 2-3.1 2.1l.4-1.8-2 .4-2 .4-1.2 4.7-.4 1.6z" fill="#b4fe2f"/><path d="M6 24.8 0 24l6.3-1.2z" fill="#b4fe2f"/><path d="M83.2 26c.6-.4 1-1.6.8-2q-.2-.6-.7-1.1-.4-.4-1-.2c1 1 1.3 1.7 1 3.3" fill="#b4fe2f"/><path d="m48 21.9.9-.5 4.8-2.7 2 .3 4.4.8 4.3.7 1.4.2q.7 0 1.2.7l.7.6 1.9 1.6.2.1h.2l1.3-.3 1.2-.1 1.6-.3 1.9-.2 1 1q.8.9 2 .3l.8 1q.3.4 1 .4H82q.3-.1.4.2l.1.3-1.6.2q-.5 0-1-.4l-.7-.9c-.5-.5-.9.3-1.9-.2l-1-.8q-.4-.2-.8-.2l-4.2.8c-.6 0-.9-.7-1.5-.7l1.4 1.2.4.7v1.5q0 .4-.2.8l-1 1c-.3.5-.6 1.1-1 .8q-1.1.6-2.4 1l.2-.5c-.7 0-1.6.2-2-.3l-1-1.2-.1-.5.5-.5.4-.4-1.6-1.2-1-.9-1.7-.3 2-.2.3.1.7.7 2.1 1.7q0 .6-.3 1c0 .1-.4.3-.3.5q.7.6 1.5 1 .7 0 1.3-.4.5-.9.7-1.9.2 1.2-.2 2.2l1.1-.6a4 4 0 0 0 .5-2.1q0-.3.2-.3l.1 1.9.5-.6.1-.6.1-1.4v-.4l-.8-.7q-2-1.6-3.7-3.4-.2-.4-.5-.4l-1.7-.3-4.3-.6-6.3-.8-4 2 9.3.5 2.3.2h-1l-7.8-.1h-4.4z" fill="#b4fe2f"/><path d="M85.8 21.8c-.5-.5-1 0-1.6-.4q-.4-.3-.9-.2-1.4.2-2.5-.5l-2.2-1.4q-1-.6-2.1-.6l-6-.8-5-1-.4-1.7-.5-1.7q.6-.4 1-.5h5q1.8 1 3.5 2.4l2.2-.3q.6-.7.9-1.5v-.2h.6l1.3-1.7q.3-.2.5-.7-1.2.7-2 1.9 0 .2-.4.2-1.2 0-2.3.3-.4 0-.9-.4l-.4-.4q.1-.8.4-1.7-.5.8-.7 1.8.6.6 1.3.9h1.2l1.3-.2q-.4.7-1 1.4l-1.4.1-.6.1-.7-.7-.8-.5q-.7-.7-1.6-1.2l-1-.3-1.7-.5-1.7-.4-1.4-1.6-.6-.6V6.3l-.7.4-.2 2.5 1.2 1.3q.6.8 1.3 1.2l1.3.2 3 .6.2.1-.2.1-2-.1h-3.6q-2 .6-3.8 2l-.6 1.4-.8 2 1.4-1.6q1.1-1.3 2.6-2.5l.7 2.4v1l-.4 1 1-.6 4 .6 5.8.8 1.8.1q.7.1 1.1.5l2.9 1.9q1.3.5 2.6.2c.7-.2 1.2.6 1.5 1.3l.5.8q.1 1-.3 2 0 .3-.3.3-.8-.3-1.2.5.8 0 1.5-.4l.5-.8q.4-.7.6-1.4l-.3-.6-.8-1.4c.8-.2 1.2 1 1.6 1.8l.1.8q-.2 1-.8 2h.1q.9-.7 1.3-1.7.2-.4 0-.8l-.6-1.6z" fill="#b4fe2f"/><path d="M70.2 1.9c-.8-.2-2.8-.4-2.8-.2l-1-.3 1.3.8.5.5q0 .1 0 .2V3h-.7l-1.9-1.4c-.5-.3-1.6-.9-2.2-.8q-.7 1.6.3 3.2l.6.9-.9-.7q-.6-.6-.8-1.5V1.3q0-.6.6-1c.9-.2 2 .6 2.5.6l2 .2 2.5.3.8-1 .4-.4q.7 0 1.1.6.9.9 1 2-.4-1.2-1.5-2.2 0 .6-.2 1.2H71l.9.4 1.3.6q1.4.6 2.6 1.6l.7.6 1 1q.5.5-.3 1.1.1-.8-.5-1.4l.2.5q.1.5-.3.8l-1-1.9.1-.3q-.2 0-.2-.3-1.5-1.2-3.2-1.9-1-.4-2.1-.5" fill="#b4fe2f"/><path d="M57.8 16.3v1l.3-.7.1-.7-.1-1.6-.1-.8-.7-.6-1.2-1-.8-.6q-.8-.7-1.7-1.2l1 .8.3.3.8.6 1 1 .8.7.1.2v.4z" fill="#b4fe2f"/><path d="m76 7.7-1-.1.4.5 1.8 2.3-.3.3 1 .2c.6.1 1.7.2 1.8 0v-.3l-2.2-2.8-.3-.6q-.2 0-.2.3l1 1.3h-.5q-.8.4-1.4-.5L76 8h-.1l.2-.2z" fill="#b4fe2f"/><path d="M71.3 7.5c.7.5 2.2.6 3 .3q-.1-.6-.8-.8L72 6.5l-.8-.3h-.9c-.2.3.3.9.7 1z" fill="#f9f8f9"/><path d="M75.3 6.8q0-.4-.2-.3l-.4-.5q-.2-.2-.5-.3l-.5-.2-1-.4-.8-.4c-.4-.2-.7-.8-1-.9l1 1.4q.2.1 0 .3l-.4.1 1.3.4 1.3.4z" fill="#b4fe2f"/><path d="M75.5 6.8h.2q.4 0-.2-1T74 4.4q1 1 1.6 2.2h-.1z" fill="#b4fe2f"/><path d="m59.7 11 1-.2 1.4-.6q-1.3.3-2.4.9" fill="#b4fe2f"/><path d="M76.9 11.2q.4.4.7 1 .3-.4 0-.6z" fill="#b4fe2f"/></g><defs><clipPath id="a"><path fill="#fff" d="M0 0h87.3v31.6H0z"/></clipPath></defs></svg>